<svg width="43" height="38" viewBox="0 0 43 38" fill="none" xmlns="http://www.w3.org/2000/svg">
<path d="M42.4075 18.1938L35.5247 12.0918V3.097C35.5247 2.39571 34.9577 1.82865 34.2577 1.82865H29.1871C28.4872 1.82865 27.9201 2.39571 27.9201 3.097V5.35015L22.3907 0.449365C21.9099 0.0233886 21.1908 0.0233886 20.7087 0.449365L0.691868 18.1938C0.297395 18.5431 0.161794 19.1006 0.348073 19.5923C0.535722 20.0854 1.0069 20.4114 1.53286 20.4114H7.87047V36.3615C7.87047 37.0628 8.43752 37.6299 9.13744 37.6299C9.83873 37.6299 10.4058 37.0628 10.4058 36.3615V19.1444C10.4058 18.4445 9.83873 17.8774 9.13744 17.8774H4.87356L21.5497 3.09015L28.3447 9.11409C28.7187 9.44693 29.2488 9.52637 29.7049 9.32229C30.161 9.1182 30.4527 8.6662 30.4527 8.16626V4.36397H32.9894V12.663C32.9894 13.026 33.1428 13.3711 33.4167 13.6108L38.2258 17.8747H33.9633C33.2606 17.8747 32.6949 18.4417 32.6949 19.1417V36.3602C32.6949 37.0615 33.2606 37.6285 33.9633 37.6285C34.6632 37.6285 35.2302 37.0615 35.2302 36.3602V20.41H41.5665C42.0924 20.41 42.565 20.0854 42.7513 19.5909C42.9375 19.1006 42.8006 18.5431 42.4075 18.1938Z" fill="#2B2D2F"/>
<path d="M27.3375 25.4725L28.3498 19.4362C28.3498 18.6623 27.7142 18.0254 26.9376 18.0254H16.1649C15.3869 18.0254 14.75 18.6623 14.75 19.4362L15.7636 25.4725C17.0621 25.6259 18.077 26.7216 18.077 28.0626C18.077 28.8186 17.7496 29.498 17.2346 29.9747H25.8679C25.3529 29.4966 25.0255 28.8173 25.0255 28.0626C25.0241 26.7216 26.0391 25.6245 27.3375 25.4725Z" fill="#2B2D2F"/>
<path d="M15.1914 33.0917C15.1914 33.8711 15.8269 34.5066 16.6049 34.5066V37.6268H17.3679V34.5066H25.7312V37.6268H26.4942V34.5066C27.2722 34.5066 27.9077 33.8711 27.9077 33.0917V30.6797H15.1914V33.0917Z" fill="#2B2D2F"/>
<path d="M27.6426 26.1494C26.5865 26.1494 25.7305 27.0055 25.7305 28.0615C25.7305 29.1176 26.5865 29.9736 27.6426 29.9736C28.6986 29.9736 29.5547 29.1176 29.5547 28.0615C29.5547 27.0055 28.6986 26.1494 27.6426 26.1494ZM28.2083 29.1066L28.3493 28.2683C28.3493 27.6109 28.1905 27.0781 27.9781 26.9247C28.4767 27.0726 28.8493 27.5177 28.8493 28.0629C28.8493 28.519 28.5836 28.9011 28.2083 29.1066Z" fill="#2B2D2F"/>
<path d="M17.3672 28.0615C17.3672 27.0055 16.5111 26.1494 15.4551 26.1494C14.399 26.1494 13.543 27.0055 13.543 28.0615C13.543 29.1176 14.399 29.9736 15.4551 29.9736C16.5111 29.9736 17.3672 29.1189 17.3672 28.0615ZM14.8894 29.1066C14.5141 28.9025 14.2484 28.519 14.2484 28.0601C14.2484 27.5164 14.6209 27.0712 15.1195 26.9219C14.9086 27.0767 14.7483 27.6081 14.7483 28.2642L14.8894 29.1066Z" fill="#2B2D2F"/>
</svg>
