<svg width="60" height="117" viewBox="0 0 60 117" fill="none" xmlns="http://www.w3.org/2000/svg">
<path fill-rule="evenodd" clip-rule="evenodd" d="M41.7586 41.0007C52.0703 30.4411 58.4379 16.0172 58.4379 0.0957031H59.4379C59.4379 16.2917 52.9585 30.965 42.47 41.7034L42.4701 41.7035L42.462 41.7115C33.4792 50.4999 21.72 56.4733 8.61509 58.1786C21.7204 59.8839 33.4821 65.8573 42.4808 74.6454L42.4809 74.6453L42.4891 74.6537C52.9776 85.3922 59.457 100.066 59.457 116.262H58.457C58.457 100.34 52.0895 85.9161 41.7778 75.3566C31.2176 65.0457 16.7929 58.6786 0.870476 58.6786V57.6786C16.7931 57.6786 31.2177 51.3114 41.7586 41.0007Z" fill="#CCCCCC"/>
</svg>
