<svg width="24" height="25" viewBox="0 0 24 25" fill="none" xmlns="http://www.w3.org/2000/svg">
<path fill-rule="evenodd" clip-rule="evenodd" d="M19.7253 20.502C19.5737 20.502 19.4506 20.3828 19.4506 20.2364C19.4506 16.2644 16.1084 13.0328 11.9999 13.0328C7.89157 13.0328 4.54937 16.2641 4.54937 20.2364C4.54937 20.586 4 20.5859 4 20.2364C4 15.9715 7.58873 12.502 11.9999 12.502C16.4111 12.502 20 15.9716 20 20.2364C20 20.383 19.8769 20.502 19.7253 20.502Z" fill="black" stroke="black" stroke-width="0.3"/>
<path fill-rule="evenodd" clip-rule="evenodd" d="M12 15.502C12 15.502 12 15.3784 12 15.2264V12.774C12 12.4113 12 12.4113 12 12.774V15.2263C12 15.3784 12 15.502 12 15.502Z" fill="black" stroke="black" stroke-width="0.3"/>
<path fill-rule="evenodd" clip-rule="evenodd" d="M14.3096 16.5018C14.0749 16.5018 13.9218 16.2463 14.042 16.0384L15.4187 13.6573C15.6222 13.3053 16.1583 13.6137 15.9546 13.9662L14.5778 16.3475C14.5206 16.4465 14.4165 16.502 14.3097 16.502L14.3096 16.5018Z" fill="black" stroke="black" stroke-width="0.3"/>
<path fill-rule="evenodd" clip-rule="evenodd" d="M16.3087 18.5018C15.9954 18.5018 15.8806 18.0822 16.1539 17.9242L18.5357 16.5472C18.8871 16.3439 19.1972 16.8793 18.8447 17.0832C18.5222 17.2696 16.4918 18.502 16.3087 18.502V18.5018Z" fill="black" stroke="black" stroke-width="0.3"/>
<path fill-rule="evenodd" clip-rule="evenodd" d="M19.7277 20.502H17.2723C16.9091 20.502 16.9093 20.502 17.2723 20.502H19.7277C20.0908 20.502 20.0908 20.502 19.7277 20.502Z" fill="black"/>
<path d="M19.7277 20.502H17.2723C16.9091 20.502 16.9093 20.502 17.2723 20.502H19.7277C20.0908 20.502 20.0908 20.502 19.7277 20.502Z" stroke="black" stroke-width="0.3"/>
<path fill-rule="evenodd" clip-rule="evenodd" d="M6.7276 20.502H4.2724C3.9092 20.502 3.9092 20.502 4.2724 20.502H6.7276C7.09094 20.502 7.09066 20.502 6.7276 20.502Z" fill="black"/>
<path d="M6.7276 20.502H4.2724C3.9092 20.502 3.9092 20.502 4.2724 20.502H6.7276C7.09066 20.502 7.09094 20.502 6.7276 20.502Z" stroke="black" stroke-width="0.3"/>
<path fill-rule="evenodd" clip-rule="evenodd" d="M7.69127 18.502C7.50758 18.502 5.47836 17.27 5.15532 17.0834C4.80339 16.88 5.1116 16.3434 5.4643 16.5475L7.84607 17.9245C8.1189 18.0822 8.00535 18.502 7.69127 18.502Z" fill="black" stroke="black" stroke-width="0.3"/>
<path fill-rule="evenodd" clip-rule="evenodd" d="M9.69075 16.502C9.58369 16.502 9.47973 16.4465 9.42233 16.3472L8.04541 13.9661C7.84165 13.6138 8.37788 13.3053 8.58117 13.6572L9.95809 16.0382C10.0785 16.2463 9.92421 16.5018 9.69075 16.5018V16.502Z" fill="black" stroke="black" stroke-width="0.3"/>
<path fill-rule="evenodd" clip-rule="evenodd" d="M11.9999 21.502C10.6667 21.502 10.6667 19.502 11.9999 19.502C13.3334 19.502 13.3334 21.502 11.9999 21.502ZM11.9999 19.945C11.2572 19.945 11.2572 21.0589 11.9999 21.0589C12.7426 21.0589 12.7426 19.945 11.9999 19.945Z" fill="black" stroke="black" stroke-width="0.3"/>
<path fill-rule="evenodd" clip-rule="evenodd" d="M12.2842 20.502C12.0608 20.502 11.9219 20.227 12.0475 20.0181L13.4754 17.6436C13.6815 17.3009 14.1553 17.645 13.9492 17.9876L12.5213 20.362C12.4669 20.4525 12.3763 20.502 12.2842 20.502Z" fill="black" stroke="black" stroke-width="0.3"/>
<path fill-rule="evenodd" clip-rule="evenodd" d="M19.1077 18.502C18.5576 18.502 18.7136 17.9715 19.0017 17.9715C22.9095 17.9715 23.7301 12.678 20.3762 11.2792C20.2966 11.246 20.2384 11.1743 20.2207 11.0878C19.7694 8.87313 17.3766 7.6776 15.3968 8.70248C15.2523 8.7774 15.0771 8.6985 15.0325 8.53871C14.1319 5.31717 9.71572 5.15964 8.608 8.32045C8.47819 8.69081 8.13503 8.33146 7.29699 8.33146C5.72209 8.33146 4.37048 9.43152 4.01043 11.0063C3.98993 11.0965 3.92522 11.1687 3.83988 11.1976C2.44959 11.6661 1.51564 12.9924 1.51564 14.4982C1.51564 16.4339 3.00403 17.9706 4.99801 17.9712C5.28638 17.9712 5.44197 18.5016 4.89204 18.5016C2.74595 18.5016 1 16.7056 1 14.4979C1 12.8119 2.01632 11.3205 3.54378 10.7417C4.1026 8.64029 6.17354 7.40763 8.21083 7.91217C9.5979 4.60232 14.2185 4.73572 15.4354 8.101C17.6151 7.17385 20.1261 8.47268 20.6952 10.8421C22.0998 11.4867 23 12.9067 23 14.4983C23 16.7059 21.254 18.5017 19.1078 18.5017L19.1077 18.502Z" fill="black" stroke="black" stroke-width="0.3"/>
</svg>
