<svg width="91" height="53" viewBox="0 0 91 53" fill="none" xmlns="http://www.w3.org/2000/svg">
<g clip-path="url(#clip0_4565_65228)">
<path d="M90.5625 22.2806C90.5625 16.2344 85.6416 11.3169 79.5921 11.3169C79.5921 11.3169 78.3493 11.5453 77.2476 11.7502C76.1526 6.77895 71.9706 3.11768 66.7609 3.11768C63.711 3.11768 60.9801 4.43775 59.0084 6.55054C57.6783 3.17814 54.4033 0.783203 50.5707 0.783203C46.2309 0.783203 42.6066 3.83986 41.6997 7.90756C40.1445 6.9301 38.3878 6.32213 36.4732 6.32213C32.654 6.32213 29.2547 8.37445 27.273 11.552C25.318 9.91958 22.9836 8.81784 20.4375 8.81784C14.3913 8.81784 9.47382 13.7354 9.47382 19.7815C9.47382 20.8664 9.91721 21.9111 10.2565 22.9658C4.8351 23.6241 0.5625 28.0815 0.5625 33.6775C0.5625 39.727 5.48002 44.6479 11.5261 44.6479C11.8486 44.6479 12.1442 44.5605 12.4566 44.5303C13.1888 48.8163 16.9072 52.1014 21.4015 52.1014C24.9486 52.1014 27.9951 50.039 29.4932 47.0697C31.3071 50.4958 34.8138 52.8505 38.9621 52.8505C44.444 52.8505 48.945 48.6988 49.6739 43.3144C50.134 43.1263 50.564 42.7668 51.004 42.4981C51.5213 48.0673 56.0693 52.491 61.7661 52.491C66.2201 52.491 69.9989 49.7434 71.6952 45.7429C73.5124 46.9991 75.5614 47.8523 77.8052 47.8523C83.8513 47.8523 88.7688 42.9314 88.7688 36.882C88.7688 34.5408 87.8686 32.3574 86.4746 30.4798C88.9368 28.4039 90.5625 25.532 90.5625 22.2806ZM44.1585 9.87927C44.1585 6.34564 47.0337 3.46701 50.5707 3.46701C54.0204 3.46701 56.8184 6.218 56.9494 9.63742C56.9091 9.71804 56.862 9.79529 56.8251 9.87927C55.2497 9.02945 53.5703 8.45843 51.79 8.45843C49.2809 8.45843 46.9968 9.46612 45.062 11.0213C44.7563 10.6014 44.3869 10.2521 44.0375 9.87927H44.1585ZM21.4015 49.4109C18.1903 49.4109 15.5502 47.0327 15.0866 43.9459C17.2229 43.1699 19.0972 41.7793 20.4274 39.8479C22.4327 41.8196 24.9721 43.1666 27.7869 43.2069C27.6727 46.6465 24.8612 49.4109 21.4015 49.4109ZM77.8085 45.1584C75.642 45.1584 73.593 44.322 72.0345 42.8072L70.3416 41.1579L69.7907 43.4554C68.8905 47.1906 65.592 49.8005 61.7661 49.8005C57.2047 49.8005 53.493 46.0889 53.493 41.5207L53.9263 36.9626L51.35 39.2064C50.2919 40.2174 49.2372 40.8724 48.1287 41.2117L47.242 41.4837L47.1815 42.4108C46.9027 46.7573 43.2918 50.1633 38.9621 50.1633C34.3973 50.1633 30.6823 46.4516 30.6823 41.8801V40.3853L29.1372 40.4089L27.9179 40.5365C25.2945 40.5365 22.7955 39.2534 21.2335 37.1003L19.9202 35.2932L18.9394 37.3018C17.532 40.1771 14.6903 41.9641 11.5261 41.9641C6.96468 41.9641 3.24967 38.2524 3.24967 33.6842C3.24967 29.116 6.96132 25.401 11.5261 25.401H13.7095L13.078 23.4864C12.47 22.2806 12.161 21.0344 12.161 19.7815C12.161 15.2167 15.8726 11.505 20.4375 11.505C22.8257 11.505 25.0292 12.5194 26.6381 14.3601L28.0388 15.959L28.8819 14.0041C30.1919 10.9709 33.1713 9.0093 36.4732 9.0093C39.1603 9.0093 41.6056 10.3932 43.1474 12.59C42.5898 12.4858 42.0222 12.4186 41.4377 12.4186C36.4194 12.4186 32.3383 16.4998 32.3383 21.5147H35.0254C35.0254 17.9811 37.9007 15.1025 41.4377 15.1025C44.9713 15.1025 47.8466 17.9777 47.8466 21.5147H50.5338C50.5338 18.1289 48.6494 15.2032 45.9018 13.6379C47.4737 12.0324 49.563 11.149 51.7867 11.149C53.53 11.149 55.2128 11.72 56.6572 12.7982L58.2661 14.0007L58.7599 12.0492C59.6903 8.3711 62.9787 5.80149 66.7542 5.80149C71.0604 5.80149 74.5873 9.06304 74.9534 13.386L75.0004 13.9503C73.4923 13.3054 71.8363 12.946 70.093 12.946V15.6332C75.5244 15.6332 79.9415 20.0536 79.9415 25.485C79.9415 30.9232 75.5278 35.3469 70.093 35.3469V38.0374C77.0057 38.0374 82.6286 32.4045 82.6286 25.4884C82.6286 20.8261 80.0389 16.7987 76.2567 14.6389L76.7538 14.5381L79.5854 14.0074C84.1502 14.0074 87.8652 17.7191 87.8652 22.2839C87.8652 25.0853 86.4545 27.6784 84.0864 29.2202L82.7496 30.0935L83.8412 31.2624C85.2822 32.8109 86.0749 34.8061 86.0749 36.8853C86.0816 41.4468 82.37 45.1584 77.8085 45.1584Z" fill="#2B2D2F"/>
</g>
<defs>
<clipPath id="clip0_4565_65228">
<rect width="90" height="52.0639" fill="white" transform="translate(0.5625 0.783203)"/>
</clipPath>
</defs>
</svg>
