<svg width="39" height="43" viewBox="0 0 39 43" fill="none" xmlns="http://www.w3.org/2000/svg">
<path d="M18.1769 35.275C18.1386 35.2747 18.1005 35.272 18.0626 35.2668C17.9564 35.252 17.8542 35.2164 17.7618 35.1621C17.6694 35.1077 17.5886 35.0357 17.5241 34.9502C17.4595 34.8646 17.4124 34.7672 17.3855 34.6634C17.3586 34.5597 17.3524 34.4516 17.3673 34.3455C18.4095 26.919 18.5719 20.7109 17.8512 15.9017C17.8188 15.6876 17.8727 15.4694 18.0011 15.2951C18.1295 15.1208 18.3219 15.0046 18.536 14.9721C18.75 14.9397 18.9682 14.9936 19.1426 15.122C19.3169 15.2504 19.4331 15.4428 19.4655 15.6568C20.2098 20.6195 20.0474 26.981 18.984 34.5666C18.9579 34.7624 18.8618 34.942 18.7134 35.0723C18.5649 35.2025 18.3743 35.2746 18.1769 35.275Z" fill="#2B2D2F"/>
<path d="M20.0217 27.1491C19.7116 27.1491 19.5174 27.1393 19.4741 27.1377C19.2917 27.1276 19.118 27.0567 18.9807 26.9363C18.8434 26.8159 18.7504 26.6529 18.7167 26.4734C18.6637 26.1918 17.4566 19.5259 21.0019 15.4805C24.5472 11.4351 31.3121 11.755 31.5986 11.7722C31.7808 11.7821 31.9545 11.8529 32.0918 11.9732C32.2291 12.0935 32.3221 12.2563 32.3559 12.4357C32.409 12.7172 33.616 19.3831 30.0708 23.4285C27.0674 26.8569 21.7462 27.1491 20.0217 27.1491ZM30.8477 13.3954C29.1567 13.4272 24.6623 13.783 22.2326 16.5561C19.803 19.3292 20.0413 23.8308 20.2331 25.512C21.9233 25.4802 26.4186 25.1243 28.8482 22.3512C31.2778 19.5781 31.0346 15.0766 30.8477 13.3954Z" fill="#2B2D2F"/>
<path d="M18.0355 31.1933C16.311 31.1933 10.9907 30.9012 7.98568 27.4711C4.44122 23.4257 5.64828 16.7598 5.70051 16.4783C5.73438 16.2989 5.82739 16.1361 5.96468 16.0158C6.10197 15.8955 6.27563 15.8247 6.45789 15.8148C6.74435 15.7985 13.5117 15.4794 17.0562 19.5248C20.6006 23.5701 19.3928 30.236 19.3413 30.5176C19.3075 30.6969 19.2145 30.8598 19.0772 30.98C18.9399 31.1003 18.7662 31.1711 18.584 31.1811C18.5375 31.1819 18.3432 31.1933 18.0355 31.1933ZM9.21315 26.3955C11.6428 29.1702 16.1372 29.5244 17.8282 29.5554C18.0192 27.8759 18.2583 23.3735 15.8287 20.6004C13.3991 17.8273 8.90302 17.4698 7.21118 17.438C7.01775 19.1151 6.78107 23.6207 9.2107 26.3938L9.21315 26.3955Z" fill="#2B2D2F"/>
<path d="M19.7836 26.8361C19.64 26.8359 19.499 26.7977 19.3748 26.7256C19.2506 26.6534 19.1477 26.5497 19.0764 26.425C19.0051 26.3003 18.968 26.159 18.9688 26.0154C18.9696 25.8718 19.0083 25.7309 19.0809 25.607C22.3267 20.0698 30.6447 12.3046 30.9965 11.9782C31.075 11.9052 31.1671 11.8484 31.2675 11.811C31.368 11.7736 31.4748 11.7564 31.582 11.7603C31.6891 11.7642 31.7944 11.7892 31.8919 11.8338C31.9893 11.8784 32.0771 11.9417 32.1501 12.0202C32.2231 12.0987 32.2799 12.1908 32.3173 12.2913C32.3546 12.3918 32.3719 12.4986 32.368 12.6057C32.3641 12.7128 32.3391 12.8181 32.2945 12.9156C32.2499 13.0131 32.1865 13.1008 32.108 13.1738C32.0264 13.2554 23.6129 21.0989 20.488 26.4297C20.4163 26.5531 20.3136 26.6555 20.19 26.7268C20.0664 26.7981 19.9263 26.8358 19.7836 26.8361Z" fill="#2B2D2F"/>
<path d="M17.892 30.7297C17.7594 30.7291 17.629 30.6963 17.512 30.634C17.3949 30.5717 17.2948 30.4819 17.2203 30.3722C13.8881 25.4732 6.3062 18.0573 6.2303 17.9855C6.15356 17.9105 6.09235 17.8211 6.05016 17.7224C6.00798 17.6237 5.98564 17.5177 5.98443 17.4104C5.98321 17.3031 6.00315 17.1966 6.0431 17.097C6.08304 16.9974 6.14222 16.9066 6.21724 16.8299C6.29226 16.7532 6.38167 16.692 6.48034 16.6498C6.57902 16.6076 6.68504 16.5852 6.79236 16.584C6.89967 16.5828 7.00617 16.6028 7.10577 16.6427C7.20538 16.6826 7.29614 16.7418 7.37288 16.8168C7.68873 17.1253 15.149 24.4212 18.5686 29.4549C18.6519 29.5775 18.7002 29.7205 18.7084 29.8686C18.7166 30.0166 18.6843 30.164 18.615 30.2951C18.5457 30.4261 18.442 30.5358 18.3151 30.6124C18.1881 30.689 18.0427 30.7295 17.8945 30.7297H17.892Z" fill="#2B2D2F"/>
<path d="M19.4391 42.7062C15.6424 42.7062 11.9309 41.5804 8.77401 39.4711C5.61711 37.3618 3.15659 34.3639 1.70359 30.8563C0.250585 27.3487 -0.129648 23.4891 0.610972 19.7654C1.35159 16.0417 3.1798 12.6213 5.86442 9.93662C7.64295 8.14852 9.7585 6.73092 12.0886 5.76588C14.4187 4.80085 16.9171 4.30754 19.4391 4.31453H22.023C22.2395 4.31453 22.4471 4.40051 22.6001 4.55356C22.7532 4.7066 22.8391 4.91418 22.8391 5.13062C22.8391 5.34707 22.7532 5.55464 22.6001 5.70769C22.4471 5.86074 22.2395 5.94672 22.023 5.94672H19.4391C9.75411 5.94672 1.87435 13.8253 1.87435 23.51C1.87435 33.1946 9.75411 41.074 19.4391 41.074C29.1242 41.074 37.0031 33.1946 37.0031 23.51C37.0031 23.2935 37.0891 23.0859 37.2422 22.9329C37.3952 22.7798 37.6028 22.6939 37.8192 22.6939C38.0357 22.6939 38.2433 22.7798 38.3963 22.9329C38.5494 23.0859 38.6354 23.2935 38.6354 23.51C38.6355 26.0308 38.139 28.527 37.1744 30.856C36.2097 33.185 34.7958 35.3012 33.0132 37.0837C31.2307 38.8662 29.1145 40.2803 26.7854 41.245C24.4564 42.2097 21.9601 42.7062 19.4391 42.7062Z" fill="#2B2D2F"/>
<path d="M19.0272 9.41934C18.8658 9.4193 18.7081 9.37142 18.5739 9.28174C18.4397 9.19207 18.3351 9.06462 18.2734 8.91552C18.2116 8.76642 18.1955 8.60236 18.2269 8.44407C18.2584 8.28579 18.3361 8.14039 18.4502 8.02626L21.3067 5.16992L18.4502 2.31357C18.2971 2.16055 18.211 1.95296 18.2109 1.73647C18.2109 1.51999 18.2968 1.31234 18.4498 1.1592C18.6029 1.00607 18.8105 0.919998 19.0269 0.919922C19.2434 0.919845 19.4511 1.00577 19.6042 1.1588L23.0385 4.59212C23.1144 4.66791 23.1746 4.75792 23.2157 4.85699C23.2567 4.95606 23.2779 5.06226 23.2779 5.16951C23.2779 5.27675 23.2567 5.38295 23.2157 5.48202C23.1746 5.5811 23.1144 5.6711 23.0385 5.7469L19.6042 9.18022C19.5287 9.25626 19.4387 9.31655 19.3397 9.35759C19.2407 9.39864 19.1344 9.41963 19.0272 9.41934Z" fill="#2B2D2F"/>
</svg>
